{
  "source": "C:\\Users\\Peter\\Desktop\\stuff\\MIUN\\quantitative_research\\video_compression\\videos\\BVI-HD\\RockWater_1920x1080_30fps.mp4",
  "output": "C:\\Users\\Peter\\Desktop\\stuff\\MIUN\\quantitative_research\\video_compression\\compressed_videos\\BVI-HD\\h264\\2.5\\RockWater_1920x1080_30fps_h264.mp4",
  "codec": "h264",
  "ok": "Input #0, mov,mp4,m4a,3gp,3g2,mj2, from 'C:\\Users\\Peter\\Desktop\\stuff\\MIUN\\quantitative_research\\video_compression\\videos\\BVI-HD\\RockWater_1920x1080_30fps.mp4':\n  Metadata:\n    major_brand     : isom\n    minor_version   : 512\n    compatible_brands: isomiso2avc1mp41\n    encoder         : Lavf54.28.101\n  Duration: 00:00:05.00, start: 0.000000, bitrate: 245943 kb/s\n  Stream #0:0[0x1](und): Video: h264 (High 4:4:4 Predictive) (avc1 / 0x31637661), yuv420p(progressive), 1920x1080, 245940 kb/s, 30 fps, 30 tbr, 30 tbn (default)\n    Metadata:\n      handler_name    : VideoHandler\n      vendor_id       : [0][0][0][0]\n[out#0/mp4 @ 00000225ec621440] Codec AVOption b:a (set bitrate (in bits/s)) has not been used for any stream. The most likely reason is either wrong type (e.g. a video option with no video streams) or that it is a private option of some decoder which was not actually used for any stream.\nStream mapping:\n  Stream #0:0 -> #0:0 (h264 (native) -> h264 (libx264))\nPress [q] to stop, [?] for help\n[libx264 @ 00000225eced47c0] using cpu capabilities: MMX2 SSE2Fast SSSE3 SSE4.2 AVX FMA3 BMI2 AVX2\n[libx264 @ 00000225eced47c0] profile High, level 5.0, 4:2:0, 8-bit\n[libx264 @ 00000225eced47c0] 264 - core 165 r3222 b35605a - H.264/MPEG-4 AVC codec - Copyleft 2003-2025 - http://www.videolan.org/x264.html - options: cabac=1 ref=5 deblock=1:0:0 analyse=0x3:0x113 me=hex subme=8 psy=1 psy_rd=1.00:0.00 mixed_ref=1 me_range=16 chroma_me=1 trellis=2 8x8dct=1 cqm=0 deadzone=21,11 fast_pskip=1 chroma_qp_offset=-2 threads=18 lookahead_threads=3 sliced_threads=0 nr=0 decimate=1 interlaced=0 bluray_compat=0 constrained_intra=0 bframes=3 b_pyramid=2 b_adapt=1 b_bias=0 direct=3 weightb=1 open_gop=0 weightp=2 keyint=250 keyint_min=25 scenecut=40 intra_refresh=0 rc_lookahead=50 rc=cbr mbtree=1 bitrate=2500 ratetol=1.0 qcomp=0.60 qpmin=0 qpmax=69 qpstep=4 vbv_maxrate=2500 vbv_bufsize=2500 nal_hrd=none filler=0 ip_ratio=1.40 aq=1:1.00\nOutput #0, mp4, to 'C:\\Users\\Peter\\Desktop\\stuff\\MIUN\\quantitative_research\\video_compression\\compressed_videos\\BVI-HD\\h264\\2.5\\RockWater_1920x1080_30fps_h264.mp4':\n  Metadata:\n    major_brand     : isom\n    minor_version   : 512\n    compatible_brands: isomiso2avc1mp41\n    encoder         : Lavf62.3.100\n  Stream #0:0(und): Video: h264 (avc1 / 0x31637661), yuv420p(tv, progressive), 1920x1080, q=2-31, 2500 kb/s, 30 fps, 15360 tbn (default)\n    Metadata:\n      encoder         : Lavc62.11.100 libx264\n      handler_name    : VideoHandler\n      vendor_id       : [0][0][0][0]\n    Side data:\n      cpb: bitrate max/min/avg: 2500000/0/2500000 buffer size: 2500000 vbv_delay: N/A\nframe=    0 fps=0.0 q=0.0 size=       0KiB time=N/A bitrate=N/A speed=N/A elapsed=0:00:00.52    \nframe=    0 fps=0.0 q=0.0 size=       0KiB time=N/A bitrate=N/A speed=N/A elapsed=0:00:01.06    \nframe=   23 fps= 14 q=42.0 size=       0KiB time=00:00:00.53 bitrate=   0.7kbits/s speed=0.333x elapsed=0:00:01.60    \nframe=   48 fps= 22 q=42.0 size=     256KiB time=00:00:01.53 bitrate=1368.0kbits/s speed=0.691x elapsed=0:00:02.21    \nframe=   73 fps= 26 q=41.0 size=     512KiB time=00:00:02.36 bitrate=1772.4kbits/s speed=0.855x elapsed=0:00:02.76    \nframe=   92 fps= 28 q=42.0 size=     768KiB time=00:00:03.00 bitrate=2097.3kbits/s speed=0.903x elapsed=0:00:03.32    \nframe=  107 fps= 28 q=41.0 size=     768KiB time=00:00:03.50 bitrate=1797.7kbits/s speed=0.906x elapsed=0:00:03.86    \nframe=  125 fps= 28 q=38.0 size=    1024KiB time=00:00:04.10 bitrate=2046.1kbits/s speed=0.934x elapsed=0:00:04.38    \n[mp4 @ 00000225ec621580] Starting second pass: moving the moov atom to the beginning of the file\n[out#0/mp4 @ 00000225ec621440] video:1398KiB audio:0KiB subtitle:0KiB other streams:0KiB global headers:0KiB muxing overhead: 0.185689%\nframe=  150 fps= 31 q=-1.0 Lsize=    1401KiB time=00:00:04.93 bitrate=2326.4kbits/s speed=1.03x elapsed=0:00:04.77    \n[libx264 @ 00000225eced47c0] frame I:1     Avg QP:39.18  size: 34176\n[libx264 @ 00000225eced47c0] frame P:40    Avg QP:40.36  size: 14408\n[libx264 @ 00000225eced47c0] frame B:109   Avg QP:44.21  size:  7529\n[libx264 @ 00000225eced47c0] consecutive B-frames:  1.3%  4.0%  4.0% 90.7%\n[libx264 @ 00000225eced47c0] mb I  I16..4: 51.7% 45.9%  2.5%\n[libx264 @ 00000225eced47c0] mb P  I16..4: 21.3%  8.7%  0.2%  P16..4: 33.8%  2.6%  2.1%  0.0%  0.0%    skip:31.4%\n[libx264 @ 00000225eced47c0] mb B  I16..4:  1.8%  1.4%  0.0%  B16..8: 44.7%  2.6%  0.1%  direct: 1.0%  skip:48.4%  L0:51.7% L1:47.2% BI: 1.1%\n[libx264 @ 00000225eced47c0] 8x8 transform intra:33.0% inter:76.5%\n[libx264 @ 00000225eced47c0] direct mvs  spatial:91.7% temporal:8.3%\n[libx264 @ 00000225eced47c0] coded y,uvDC,uvAC intra: 10.5% 5.6% 0.0% inter: 4.2% 0.3% 0.0%\n[libx264 @ 00000225eced47c0] i16 v,h,dc,p: 12% 44%  9% 35%\n[libx264 @ 00000225eced47c0] i8 v,h,dc,ddl,ddr,vr,hd,vl,hu:  4% 15% 34%  6%  7%  4% 12%  5% 11%\n[libx264 @ 00000225eced47c0] i4 v,h,dc,ddl,ddr,vr,hd,vl,hu:  4%  8% 25%  9% 10%  6% 13%  7% 18%\n[libx264 @ 00000225eced47c0] i8c dc,h,v,p: 98%  2%  0%  0%\n[libx264 @ 00000225eced47c0] Weighted P-Frames: Y:10.0% UV:0.0%\n[libx264 @ 00000225eced47c0] ref P L0: 48.0%  5.6% 20.7% 12.7% 12.2%  0.9%\n[libx264 @ 00000225eced47c0] ref B L0: 61.1% 21.3% 13.1%  4.5%\n[libx264 @ 00000225eced47c0] ref B L1: 90.3%  9.7%\n[libx264 @ 00000225eced47c0] kb/s:2289.93\n",
  "seconds": 4.954675197601318,
  "probe_out": {}
}